PathFileType	4	(X/Y/Z)	s06c0401.trc
DataRate	CameraRate	NumFrames	NumMarkers	Units	OrigDataRate	OrigDataStartFrame	OrigNumFrames
200	200	4	48	mm	200	250	2000
Frame#	Time	racr			lacr			c7			jug			rlel			rdr			llel			ldr			s2			lic			ric			lasi			rasi			rpsi			lpsi			rgt			lgt			rth1			rth2			rth3			rth4			rlfc			rmfc			rsh1			rsh2			rsh3			rsh4			rlmal			rcal			rtoe			rmt5			lth1			lth2			lth4			lth3			llfc			lmfc			llmal			lcal			lmt5			lsh1			lsh2			lsh3			lsh4			ltoe			SBIKE			LBIKE			RBIKE			
		X1	Y1	Z1	X2	Y2	Z2	X3	Y3	Z3	X4	Y4	Z4	X5	Y5	Z5	X6	Y6	Z6	X7	Y7	Z7	X8	Y8	Z8	X9	Y9	Z9	X10	Y10	Z10	X11	Y11	Z11	X12	Y12	Z12	X13	Y13	Z13	X14	Y14	Z14	X15	Y15	Z15	X16	Y16	Z16	X17	Y17	Z17	X18	Y18	Z18	X19	Y19	Z19	X20	Y20	Z20	X21	Y21	Z21	X22	Y22	Z22	X23	Y23	Z23	X24	Y24	Z24	X25	Y25	Z25	X26	Y26	Z26	X27	Y27	Z27	X28	Y28	Z28	X29	Y29	Z29	X30	Y30	Z30	X31	Y31	Z31	X32	Y32	Z32	X33	Y33	Z33	X34	Y34	Z34	X35	Y35	Z35	X36	Y36	Z36	X37	Y37	Z37	X38	Y38	Z38	X39	Y39	Z39	X40	Y40	Z40	X41	Y41	Z41	X42	Y42	Z42	X43	Y43	Z43	X44	Y44	Z44	X45	Y45	Z45	X46	Y46	Z46	X47	Y47	Z47	X48	Y48	Z48	
250	1.2500	660.290446	1211.904315	-45.351053	663.862667	1190.087368	-369.429658	675.516816	1308.872088	-201.872595	642.459802	1133.373916	-200.216011	508.104280	1032.987063	80.989022	662.661739	944.798769	-40.198322	480.897397	1020.066314	-496.415956	654.744319	926.175463	-418.117971	110.772150	1230.558522	-231.836417	269.744478	1143.077297	-392.620930	235.594950	1192.887194	-67.580666	269.508193	1087.509228	-353.228627	251.720049	1136.543856	-95.531151	155.973787	1268.530189	-212.569789	154.253547	1251.564188	-270.378907	209.469181	1147.216474	-25.465291	203.833713	1072.337950	-413.211084	302.848626	1061.718025	-19.847061	383.069141	1020.451424	-29.190964	426.464598	950.370026	-24.158678	401.900633	1045.787236	-49.719538	474.790059	852.946204	-54.900220	458.371641	836.212343	-168.765010	384.423475	766.101005	-36.163491	333.346119	700.028708	-57.085366	253.353544	662.546183	-60.432960	348.736152	685.225230	-93.373439	182.540497	618.952090	-66.442992	110.592045	617.477883	-118.425961	344.542756	472.854438	-104.611389	248.319846	504.368141	-38.712455	184.163213	943.963999	-435.939654	212.153058	861.370323	-433.595066	248.836713	863.685715	-425.568440	194.229916	774.155623	-424.426478	196.419804	656.192162	-398.763766	207.677451	636.967729	-281.926519	148.071551	283.233648	-388.202460	84.054689	287.334715	-339.092729	224.882517	146.689345	-408.447380	179.074486	548.252201	-422.584149	192.447345	463.594560	-406.708801	161.769324	381.437636	-406.709132	222.186187	464.390609	-381.423001	300.765062	106.852358	-350.610295	-204.701349	868.609634	-219.690905	-50.357233	80.477678	-420.047189	-50.342032	79.955262	-22.724401	
251	1.2550	660.455392	1209.984058	-43.880476	665.310635	1188.164916	-368.006235	677.271485	1307.231009	-200.401737	642.304846	1131.133391	-198.954137	507.660265	1032.097392	81.827151	662.504843	945.288092	-39.493724	481.437216	1019.741797	-496.220029	655.069079	925.817533	-418.190897	112.749178	1233.081113	-233.137446	271.825628	1144.078001	-392.848573	236.143793	1195.001788	-68.234543	270.520868	1088.386408	-353.301379	251.749745	1138.380815	-95.917394	157.925661	1270.934106	-213.719112	156.089658	1253.477384	-269.764706	209.685552	1150.230983	-26.437482	204.929192	1074.033842	-413.805910	302.264282	1063.352255	-20.088348	382.535054	1021.712906	-28.935721	425.614593	951.622609	-23.476352	401.555037	1047.054929	-49.270482	473.994508	853.997402	-54.126078	458.506920	837.096351	-168.021802	384.364824	766.264685	-35.608784	334.334526	699.317875	-56.838554	254.846961	661.049738	-60.887132	350.336869	684.605277	-92.836788	184.752634	616.294175	-67.722881	112.909843	613.081523	-119.958434	350.732879	474.857608	-103.173708	253.109616	504.018961	-38.537714	184.370350	945.276782	-436.409323	212.345361	862.661942	-433.814687	248.955859	864.952230	-425.547237	194.180861	775.418743	-424.568749	197.192164	657.601163	-398.568040	207.627686	638.447298	-281.309530	142.302446	284.812897	-387.738447	78.140691	289.233148	-338.604923	218.255922	147.667162	-408.157121	178.470822	549.655486	-421.978009	190.063389	464.769588	-405.843965	157.822673	383.104984	-405.831290	219.566359	465.038770	-380.375682	293.981866	107.305365	-350.629828	-204.670596	868.644287	-219.520732	-50.367213	80.551008	-420.026817	-50.371596	79.972242	-22.684743	
252	1.2600	660.749074	1208.127505	-42.186619	666.741096	1186.196225	-366.580223	678.926528	1305.569040	-198.920541	642.190116	1128.563371	-197.718549	507.239643	1031.256019	82.732253	662.278893	945.380576	-39.042444	481.939571	1019.364945	-496.044535	655.432258	925.390018	-418.145908	114.701391	1235.341942	-234.490126	273.892438	1144.865238	-393.143939	236.133211	1196.484077	-69.407313	271.581472	1089.019769	-353.437510	250.857715	1139.514198	-96.856215	159.877111	1273.012752	-214.934952	158.051030	1255.282231	-270.494806	209.897497	1152.740827	-27.459531	206.230715	1075.504791	-414.563169	301.465564	1064.437486	-20.997097	381.736471	1022.793153	-28.321692	424.872510	952.313427	-22.799536	401.059379	1047.983690	-48.531919	473.198740	854.515898	-53.190852	458.663784	837.459799	-166.887238	384.278295	765.765080	-35.043823	335.337862	698.152591	-56.702502	256.386438	658.955026	-61.477499	351.895217	683.638378	-92.503468	187.179796	613.302069	-69.016821	115.336569	607.993274	-121.886769	356.875974	476.547106	-102.281699	257.788376	503.416804	-38.468095	184.945747	946.354707	-436.913955	212.980557	863.994934	-434.615109	249.640241	866.165375	-425.427919	194.966684	776.546837	-424.831021	198.190628	658.642319	-398.240823	207.927416	639.736887	-280.672715	136.477770	286.482545	-387.208739	72.260664	290.964705	-337.954995	211.674905	148.901347	-407.767262	178.176880	550.920249	-421.327821	187.848429	465.852630	-405.006183	153.845552	384.823885	-404.887573	217.112656	465.497289	-379.284633	287.227170	108.040187	-350.535519	-204.649875	868.648509	-219.383565	-50.391761	80.562956	-419.995013	-50.369351	79.897401	-22.693270	
253	1.2650	660.944965	1206.336421	-40.654607	668.193849	1183.977203	-365.210098	680.498972	1303.857740	-197.428900	641.807789	1126.032767	-196.413214	506.932894	1030.401925	83.516468	661.902215	945.510446	-38.570312	482.490232	1019.092933	-495.799811	655.709864	925.103316	-417.994059	116.849499	1237.021820	-235.726180	275.939785	1145.396577	-393.442999	236.861055	1198.196374	-69.808073	272.766184	1089.534084	-353.635554	251.723044	1141.168692	-97.062029	161.853135	1274.727046	-216.195472	160.146787	1256.836595	-271.757058	210.031319	1154.731266	-28.374710	207.590279	1076.513140	-415.304162	300.570060	1065.065180	-21.162005	380.529918	1023.493213	-27.139453	424.105610	952.575187	-22.049898	400.481724	1048.522949	-47.530466	472.356671	854.591855	-52.010411	458.844622	837.209039	-165.404553	384.198961	764.791633	-34.499134	336.397642	696.416216	-56.618320	257.992669	656.305386	-62.144415	353.418175	682.202468	-92.343360	189.605044	609.948354	-70.343944	117.965814	602.417740	-124.032171	363.087977	477.885358	-101.447854	262.588634	502.387965	-38.441484	186.027147	947.259440	-437.327306	214.325942	864.906545	-434.604211	250.869680	867.329689	-425.160950	196.538386	777.464029	-425.131170	199.590250	659.394684	-397.857682	208.357679	640.656353	-280.255353	130.773449	288.218732	-386.672100	66.551962	292.910659	-337.419372	205.228313	150.351497	-407.289297	178.135977	551.997917	-420.703425	185.882211	466.675166	-404.195921	150.166812	386.376180	-404.190476	214.838808	465.823325	-378.194170	280.530643	108.878685	-350.354550	-204.621480	868.646098	-219.238668	-50.387706	80.572562	-419.964608	-50.368805	79.909592	-22.639422	
